<svg width="125" height="94" viewBox="0 0 125 94" fill="none" xmlns="http://www.w3.org/2000/svg">
<g clip-path="url(#clip0_155_1616)">
<path d="M7.2793 73.582H11.2973V78.4325H13.3807L17.9345 73.582H23.4704L16.9225 80.1762L24.274 87.4361H18.4404L13.351 82.0149H11.2675V87.4678H7.2793L7.2793 73.582Z" fill="#D90031" stroke="black" stroke-width="0.15625"/>
<path d="M33.8574 73.3604C37.5777 73.3604 39.8695 73.6774 40.7326 74.3431C41.4767 74.9138 41.8636 76.4355 41.8636 78.8766H37.8456C37.8456 78.084 37.6373 77.5768 37.2503 77.3549C36.7444 77.0696 35.6134 76.9427 33.8871 76.9427C31.9228 76.9427 30.7918 77.1013 30.4346 77.4183C30.1072 77.7353 29.9286 78.7498 29.9286 80.4934C29.9286 82.2054 30.1072 83.2199 30.4346 83.5369C30.762 83.8539 31.9228 84.0124 33.8871 84.0124C35.6729 84.0124 36.7741 83.8856 37.2206 83.6637C37.667 83.4418 37.8754 82.9028 37.8754 82.0469H41.8636C41.8636 84.5197 41.5065 86.0414 40.7624 86.5803C39.8993 87.2461 37.6075 87.5631 33.8574 87.5631C30.1072 87.5631 27.8452 87.2144 27.0714 86.4852C26.2975 85.7561 25.8809 83.7271 25.8809 80.43C25.8809 77.133 26.2678 75.1357 27.0119 74.4382C27.8452 73.7408 30.1072 73.3604 33.8574 73.3604Z" fill="#D90031" stroke="black" stroke-width="0.15625"/>
<path d="M51.002 73.6143L54.4247 81.4131C54.4545 81.5082 54.514 81.7935 54.5735 82.3325C54.633 82.8397 54.6926 83.0933 54.7521 83.0933C54.8116 83.0933 54.8414 82.9348 54.9009 82.6495C54.9307 82.3325 54.9902 81.952 55.0795 81.4448L58.5022 73.646H65.3478V87.5317H61.3297V77.799C61.3297 77.6405 61.3595 77.4186 61.419 77.1649C61.4786 76.9113 61.5083 76.7528 61.5083 76.7211C61.5083 76.626 61.4786 76.5626 61.3893 76.5626C61.3297 76.5626 61.2702 76.626 61.2107 76.7845C61.1512 76.943 61.0916 77.0698 61.0321 77.1967L56.3891 87.5317H53.1151L48.1149 77.1967C48.0554 77.0381 47.9661 76.8796 47.9066 76.7528C47.8471 76.626 47.7875 76.5626 47.728 76.5626C47.6685 76.5626 47.609 76.5943 47.609 76.6894C47.609 76.6894 47.6387 76.9113 47.728 77.3235C47.7578 77.5137 47.7875 77.6405 47.7875 77.7673V87.5317H43.7695V73.646H51.002V73.6143Z" fill="#D90031" stroke="black" stroke-width="0.15625"/>
<path d="M81.0624 73.582V81.6345H83.4434V84.7413H81.0624V87.436H77.0444V84.7413H67.1035V79.2885L74.3062 73.5503H81.0624L81.0624 73.582ZM70.6156 81.6345H77.0444V77.1644H76.0324L70.6156 81.254V81.6345Z" fill="#9E0421" stroke="black" stroke-width="0.15625"/>
<path d="M96.7769 81.4128C96.39 81.8249 95.7947 82.1103 94.9911 82.2688C94.1875 82.4273 93.0863 82.4907 91.6576 82.4907C89.1575 82.4907 87.5206 82.2054 86.7765 81.6347C86.0324 81.0641 85.6753 79.8277 85.6753 77.9255C85.6753 75.9283 86.0324 74.6602 86.7765 74.1529C87.5206 73.614 89.1278 73.3604 91.6576 73.3604C95.7649 73.3604 98.2353 73.6774 99.0091 74.3431C99.8127 75.0089 100.2 77.0379 100.2 80.5251C100.2 83.949 99.8425 86.0097 99.1282 86.6754C98.4734 87.3095 96.509 87.6582 93.2351 87.6582C89.604 87.6582 87.4015 87.4046 86.5979 86.8657C85.9729 86.4535 85.6455 85.2488 85.6455 83.2833H89.3957C89.3957 83.7905 89.6635 84.1075 90.1695 84.2026C90.6755 84.2977 91.8065 84.3612 93.503 84.3612C94.9018 84.3612 95.7649 84.266 96.0328 84.0441C96.3007 83.8222 96.4495 83.2199 96.4495 82.1737C96.4495 82.1103 96.4793 82.0152 96.5388 81.8884C96.6578 81.7298 96.7174 81.5713 96.7769 81.4128ZM92.997 79.1936C94.5744 79.1936 95.5566 79.1302 95.9435 79.0034C96.3305 78.8766 96.509 78.5279 96.509 77.9255C96.509 77.3549 96.3007 77.0061 95.9138 76.8793C95.5268 76.7525 94.5447 76.6891 92.997 76.6891C91.4195 76.6891 90.4374 76.7525 90.0504 76.8793C89.6635 77.0061 89.4849 77.3549 89.4849 77.9572C89.4849 78.5279 89.6933 78.8766 90.0802 79.0034C90.4374 79.1302 91.4195 79.1936 92.997 79.1936Z" fill="#9E0421" stroke="black" stroke-width="0.15625"/>
<path d="M103.205 73.5503H117.402V76.6889H106.747V78.8129C107.67 78.2423 109.307 77.957 111.688 77.957C114.605 77.957 116.361 78.1789 117.015 78.591C117.759 79.0665 118.146 80.4298 118.146 82.6172C118.146 84.8047 117.73 86.1996 116.867 86.802C116.003 87.4043 113.86 87.6897 110.408 87.6897C107.283 87.6897 105.229 87.4994 104.277 87.0873C103.324 86.7069 102.818 85.7875 102.818 84.3926V82.9977H106.836C106.836 83.6317 106.985 84.0122 107.283 84.139C107.58 84.2341 108.622 84.2975 110.408 84.2975C112.164 84.2975 113.206 84.2341 113.593 84.0756C113.95 83.9171 114.128 83.4415 114.128 82.6172C114.128 81.8247 113.98 81.3808 113.652 81.2223C113.325 81.0955 112.253 81.0321 110.408 81.0321C108.622 81.0321 107.58 81.0638 107.283 81.1589C106.985 81.2223 106.836 81.4759 106.836 81.9198H103.205L103.205 73.5503Z" fill="#9E0421" stroke="black" stroke-width="0.15625"/>
<path d="M34.3242 38.1982L39.8626 41.4948V54.5607L34.3242 51.2641V38.1982Z" fill="#B9031D" stroke="black" stroke-width="0.195328"/>
<path d="M62.7507 55.1233H62.7873L62.7507 68.1891L41.6973 55.6459V42.5801L62.7507 55.1233Z" fill="#B9031D" stroke="black" stroke-width="0.195328"/>
<path d="M62.75 55.1235L79.8788 44.9121V58.0181L62.75 68.1894V55.1235Z" fill="#D90031" stroke="black" stroke-width="0.195328"/>
<path d="M91.2126 51.2641L81.7129 56.8924V43.8266L91.2126 38.1982V51.2641Z" fill="#D90031" stroke="black" stroke-width="0.195328"/>
<path d="M34.3242 34.5394L62.75 51.4647L62.7866 38.3989L34.3242 21.4736V34.5394Z" fill="#B9031D" stroke="black" stroke-width="0.195328"/>
<path d="M62.75 38.3991L68.2884 35.1025V48.1684L62.75 51.465V38.3991Z" fill="#D90031" stroke="black" stroke-width="0.195328"/>
<path d="M91.2121 34.5394L70.1221 47.0826V33.9766L91.2121 21.4736V34.5394Z" fill="#D90031" stroke="black" stroke-width="0.195328"/>
<path d="M34.3242 17.816L52.5167 28.6305V15.5244L34.3242 4.70996V17.816Z" fill="#B9031D" stroke="black" stroke-width="0.195328"/>
<path d="M62.7866 21.7551V21.6747L62.7499 21.6345L54.3506 16.6494V29.7152L62.7499 34.7405L62.7866 21.7551Z" fill="#B9031D" stroke="black" stroke-width="0.195328"/>
<path d="M85.417 8.16737V21.2332L91.2122 17.816V4.70996H91.1755L85.417 8.16737Z" fill="#D90031" stroke="black" stroke-width="0.195328"/>
<path d="M83.5466 22.3589V9.29312V9.25293L62.75 21.6755V21.7559V34.7413L83.5466 22.3589Z" fill="#D90031" stroke="black" stroke-width="0.195328"/>
<path d="M38.2852 4.30762L53.9468 13.6748L55.524 14.6397L62.7863 18.9815L80.6853 8.24747L82.2625 7.28261L87.2508 4.30762L38.2852 4.30762ZM62.823 17.2528L48.225 8.8907L62.823 15.8859L85.0867 4.95086L62.823 17.2528Z" fill="#9E0421" stroke="black" stroke-width="0.195328"/>
</g>
<defs>
<clipPath id="clip0_155_1616">
<rect width="125" height="93.75" fill="white"/>
</clipPath>
</defs>
</svg>
