<svg width="212" height="52" viewBox="0 0 212 52" fill="none" xmlns="http://www.w3.org/2000/svg">
<g clip-path="url(#clip0_155_1061)">
<path d="M66.8574 17.0049H72.1032V23.3287H74.846L80.7775 17.0049H88.0119L79.5089 25.582L89.109 35.0312H81.4975L74.846 27.9806H72.1032V35.0312H66.8574V17.0049Z" fill="#D90031"/>
<path d="M101.618 16.7143C106.487 16.7143 109.47 17.1504 110.601 17.9863C111.596 18.7132 112.076 20.7121 112.076 23.9103H106.796C106.796 22.8563 106.521 22.2021 106.007 21.9114C105.356 21.548 103.881 21.3662 101.584 21.3662C99.0127 21.3662 97.5384 21.5843 97.0926 21.9841C96.6469 22.4202 96.4412 23.7286 96.4412 25.9818C96.4412 28.1988 96.6469 29.5435 97.0926 29.9433C97.5384 30.3794 99.047 30.5611 101.584 30.5611C103.916 30.5611 105.356 30.4157 105.938 30.125C106.521 29.8342 106.796 29.1437 106.796 28.0534H112.041C112.041 31.288 111.561 33.2505 110.601 33.9774C109.47 34.8496 106.453 35.2494 101.584 35.2494C96.6812 35.2494 93.7326 34.7769 92.704 33.832C91.6754 32.8871 91.1611 30.2704 91.1611 25.9455C91.1611 21.657 91.6412 19.0403 92.6355 18.1317C93.7326 17.1868 96.7155 16.7143 101.618 16.7143Z" fill="#D90031"/>
<path d="M123.979 17.005L128.471 27.1448C128.505 27.2538 128.574 27.6536 128.642 28.3077C128.711 28.9619 128.779 29.289 128.882 29.289C128.951 29.289 129.019 29.1073 129.054 28.7075C129.122 28.3077 129.191 27.7989 129.294 27.1448L133.785 17.005H142.734V35.0676H137.488V22.3838C137.488 22.1657 137.522 21.875 137.591 21.5842C137.659 21.2571 137.694 21.0754 137.694 21.0027C137.694 20.8574 137.659 20.7847 137.557 20.7847C137.488 20.7847 137.419 20.8937 137.317 21.0754C137.214 21.2571 137.145 21.4389 137.077 21.6206L131.008 35.0676H126.722L120.208 21.6206C120.105 21.4025 120.036 21.2208 119.934 21.0391C119.865 20.8574 119.796 20.7847 119.728 20.7847C119.625 20.7847 119.591 20.8574 119.591 20.9664C119.591 20.9664 119.659 21.2571 119.762 21.8023C119.796 22.0203 119.831 22.2384 119.831 22.3838V35.0676H114.585V17.005H123.979Z" fill="#D90031"/>
<path d="M163.268 17.005V27.4718H166.354V31.506H163.268V35.0312H158.023V31.506H145.028V24.419L154.457 17.005H163.268ZM149.623 27.4718H158.023V21.6569H156.686L149.623 26.963V27.4718Z" fill="#9E0421"/>
<path d="M183.807 27.1812C183.292 27.7263 182.538 28.0898 181.475 28.3078C180.447 28.5259 178.972 28.5986 177.121 28.5986C173.864 28.5986 171.738 28.2351 170.744 27.4719C169.784 26.7451 169.304 25.1096 169.304 22.6383C169.304 20.0579 169.784 18.4224 170.744 17.7319C171.704 17.0414 173.829 16.7143 177.121 16.7143C182.504 16.7143 185.692 17.1504 186.721 17.9863C187.75 18.8222 188.298 21.5116 188.298 26.0182C188.298 30.4521 187.852 33.1415 186.927 34.0137C186.07 34.8496 183.498 35.2857 179.212 35.2857C174.481 35.2857 171.601 34.9586 170.538 34.2318C169.715 33.6866 169.304 32.1239 169.304 29.5798H174.207C174.207 30.234 174.549 30.6338 175.201 30.7792C175.852 30.9245 177.327 30.9972 179.555 30.9972C181.407 30.9972 182.504 30.8518 182.881 30.5974C183.258 30.343 183.43 29.5071 183.43 28.1624C183.43 28.0898 183.464 27.9444 183.532 27.799C183.635 27.5809 183.704 27.3992 183.807 27.1812ZM178.835 24.3101C180.892 24.3101 182.195 24.2374 182.675 24.0556C183.155 23.9103 183.43 23.4378 183.43 22.6383C183.43 21.9114 183.19 21.4389 182.675 21.2572C182.161 21.0755 180.892 21.0028 178.869 21.0028C176.812 21.0028 175.509 21.0755 175.029 21.2572C174.549 21.4389 174.275 21.875 174.275 22.6383C174.275 23.3651 174.515 23.8376 175.029 24.0193C175.509 24.201 176.812 24.3101 178.835 24.3101Z" fill="#9E0421"/>
<path d="M192.207 16.9321H210.79V21.0389H196.835V23.801C198.035 23.0741 200.195 22.6743 203.281 22.6743C207.087 22.6743 209.384 22.9651 210.241 23.5102C211.235 24.1644 211.715 25.8726 211.715 28.7437C211.715 31.6148 211.167 33.3956 210.035 34.1588C208.938 34.922 206.127 35.2855 201.601 35.2855C197.521 35.2855 194.847 35.0311 193.578 34.5223C192.31 34.0135 191.692 32.8505 191.692 31.0333V29.2525H196.938C196.938 30.0884 197.144 30.5972 197.521 30.7426C197.898 30.8879 199.27 30.9606 201.601 30.9606C203.898 30.9606 205.27 30.8516 205.75 30.6699C206.23 30.4882 206.47 29.834 206.47 28.78C206.47 27.7624 206.264 27.1446 205.852 26.9992C205.441 26.8175 204.035 26.7448 201.601 26.7448C199.27 26.7448 197.932 26.7811 197.521 26.8902C197.11 26.9992 196.938 27.3263 196.938 27.8714H192.207V16.9321Z" fill="#9E0421"/>
<path d="M0 27.5871L4.70088 30.2706V40.9062L0 38.2228V27.5871Z" fill="#B9031D"/>
<path d="M24.1565 41.3643L24.1253 51.9999L6.25586 41.7897V31.1541L24.1253 41.3643H24.1565Z" fill="#B9031D"/>
<path d="M24.125 41.3644L38.6635 33.0522V43.7206L24.125 52V41.3644Z" fill="#D90031"/>
<path d="M48.2857 38.2228L40.2227 42.8043V32.1687L48.2857 27.5872V38.2228Z" fill="#D90031"/>
<path d="M0 24.6091L24.1269 38.3863L24.1581 27.7507L0 13.9735V24.6091Z" fill="#B9031D"/>
<path d="M24.125 27.7507L28.8259 25.0673V35.7029L24.125 38.3864V27.7507Z" fill="#D90031"/>
<path d="M48.2834 24.6091L30.3828 34.8193V24.1509L48.2834 13.9734V24.6091Z" fill="#D90031"/>
<path d="M15.4413 9.13017L0 0.327148V10.9955L15.4413 19.7985V9.13017Z" fill="#B9031D"/>
<path d="M24.1212 14.1042L16.9922 10.0464V20.682L24.1212 24.7726L24.1524 14.2024V14.137L24.1212 14.1042Z" fill="#B9031D"/>
<path d="M48.286 10.9955V0.327148H48.2548L43.3672 3.1415V13.7771L48.286 10.9955Z" fill="#D90031"/>
<path d="M41.7767 4.02509L24.125 14.1371V14.2026V24.7727L41.7767 14.6934V4.05783V4.02509Z" fill="#D90031"/>
<path d="M3.35742 0L24.1533 11.9446L44.918 0H3.35742Z" fill="#9E0421"/>
</g>
<defs>
<clipPath id="clip0_155_1061">
<rect width="212" height="52" fill="white"/>
</clipPath>
</defs>
</svg>
