<?xml version="1.0" encoding="utf-8"?>
<svg xmlns="http://www.w3.org/2000/svg" style="display: none;">
  
    <symbol id="search" width="20" height="20" viewBox="0 0 20 20" fill="none">
        <path d="M19 19L14.65 14.65M17 9C17 13.4183 13.4183 17 9 17C4.58172 17 1 13.4183 1 9C1 4.58172 4.58172 1 9 1C13.4183 1 17 4.58172 17 9Z" stroke="#D90031" stroke-width="2" stroke-linecap="round" stroke-linejoin="round"/>
    </symbol>

    <symbol id="mail" width="22" height="18" viewBox="0 0 22 18" fill="none">
        <path d="M1 4L9.16492 9.71544C9.82609 10.1783 10.1567 10.4097 10.5163 10.4993C10.8339 10.5785 11.1661 10.5785 11.4837 10.4993C11.8433 10.4097 12.1739 10.1783 12.8351 9.71545L21 4M5.8 17H16.2C17.8802 17 18.7202 17 19.362 16.673C19.9265 16.3854 20.3854 15.9265 20.673 15.362C21 14.7202 21 13.8802 21 12.2V5.8C21 4.11984 21 3.27976 20.673 2.63803C20.3854 2.07354 19.9265 1.6146 19.362 1.32698C18.7202 1 17.8802 1 16.2 1H5.8C4.11984 1 3.27976 1 2.63803 1.32698C2.07354 1.6146 1.6146 2.07354 1.32698 2.63803C1 3.27976 1 4.11984 1 5.8V12.2C1 13.8802 1 14.7202 1.32698 15.362C1.6146 15.9265 2.07354 16.3854 2.63803 16.673C3.27976 17 4.11984 17 5.8 17Z" stroke="#D90031" stroke-width="2" stroke-linecap="round" stroke-linejoin="round"/>
    </symbol>

    <symbol id="arrow__down" width="14" height="8" viewBox="0 0 14 8" fill="none">
        <path d="M1 1L7 7L13 1" stroke="#D90031" stroke-width="2" stroke-linecap="round" stroke-linejoin="round"/>
    </symbol>

    <symbol id="phone" width="23" height="23" viewBox="0 0 23 23" fill="none">
        <path d="M13.12 5.00009C14.0967 5.19065 14.9944 5.66834 15.698 6.37202C16.4017 7.0757 16.8794 7.97335 17.07 8.95009M13.12 1.00009C15.1492 1.22552 17.0416 2.13426 18.4862 3.5771C19.9309 5.01993 20.842 6.9111 21.07 8.94009M9.29695 12.8632C8.09537 11.6616 7.14659 10.3029 6.45059 8.85332C6.39072 8.72863 6.36079 8.66628 6.33779 8.58739C6.25607 8.30704 6.31477 7.96278 6.48478 7.72535C6.53262 7.65854 6.58978 7.60138 6.70409 7.48707C7.0537 7.13746 7.2285 6.96266 7.34278 6.78688C7.77378 6.12399 7.77378 5.26941 7.34279 4.60652C7.2285 4.43074 7.0537 4.25594 6.70409 3.90633L6.50922 3.71146C5.97778 3.18002 5.71206 2.9143 5.42668 2.76995C4.85912 2.48288 4.18885 2.48288 3.62129 2.76995C3.33591 2.9143 3.07019 3.18002 2.53874 3.71146L2.38111 3.8691C1.85149 4.39872 1.58668 4.66353 1.38443 5.02356C1.16001 5.42307 0.998644 6.04356 1.00001 6.50178C1.00124 6.91473 1.08134 7.19695 1.24155 7.7614C2.10252 10.7948 3.72699 13.6572 6.11497 16.0451C8.50295 18.4331 11.3653 20.0576 14.3987 20.9186C14.9632 21.0788 15.2454 21.1589 15.6583 21.1601C16.1165 21.1615 16.737 21.0001 17.1365 20.7757C17.4966 20.5734 17.7614 20.3086 18.291 19.779L18.4486 19.6214C18.9801 19.0899 19.2458 18.8242 19.3902 18.5388C19.6772 17.9713 19.6772 17.301 19.3902 16.7334C19.2458 16.4481 18.9801 16.1823 18.4486 15.6509L18.2538 15.456C17.9042 15.1064 17.7294 14.9316 17.5536 14.8173C16.8907 14.3863 16.0361 14.3863 15.3732 14.8173C15.1975 14.9316 15.0226 15.1064 14.673 15.456C14.5587 15.5703 14.5016 15.6275 14.4348 15.6753C14.1973 15.8453 13.8531 15.904 13.5727 15.8223C13.4938 15.7993 13.4315 15.7694 13.3068 15.7095C11.8572 15.0135 10.4985 14.0647 9.29695 12.8632Z" stroke="#D90031" stroke-width="2" stroke-linecap="round" stroke-linejoin="round"/>
    </symbol>

    <symbol id="gps" width="18" height="22" viewBox="0 0 18 22" fill="none">
        <path d="M9 12C10.6569 12 12 10.6569 12 9C12 7.34315 10.6569 6 9 6C7.34315 6 6 7.34315 6 9C6 10.6569 7.34315 12 9 12Z" stroke="#D90031" stroke-width="2" stroke-linecap="round" stroke-linejoin="round"/>
        <path d="M9 21C13 17 17 13.4183 17 9C17 4.58172 13.4183 1 9 1C4.58172 1 1 4.58172 1 9C1 13.4183 5 17 9 21Z" stroke="#D90031" stroke-width="2" stroke-linecap="round" stroke-linejoin="round"/>
    </symbol>

    <symbol id="burger" width="20" height="14" viewBox="0 0 20 14" fill="none">
        <path d="M1 7H19M1 1H19M1 13H19" stroke="#D90031" stroke-width="2" stroke-linecap="round" stroke-linejoin="round"/>
    </symbol>

    <symbol id="mail__black" width="16" height="12" viewBox="0 0 16 12" fill="none">
        <path d="M15.6875 3.96875C15.75 3.90625 15.8177 3.89583 15.8906 3.9375C15.9635 3.97917 16 4.04167 16 4.125V10.5C16 10.9167 15.8542 11.2708 15.5625 11.5625C15.2708 11.8542 14.9167 12 14.5 12H1.5C1.08333 12 0.729167 11.8542 0.4375 11.5625C0.145833 11.2708 0 10.9167 0 10.5V4.125C0 4.04167 0.0364583 3.98438 0.109375 3.95312C0.182292 3.92188 0.25 3.92708 0.3125 3.96875C1 4.48958 2.60417 5.66667 5.125 7.5C5.16667 7.54167 5.30729 7.65625 5.54688 7.84375C5.78646 8.03125 5.97917 8.17188 6.125 8.26562C6.27083 8.35938 6.45833 8.47396 6.6875 8.60938C6.91667 8.74479 7.14062 8.84375 7.35938 8.90625C7.57812 8.96875 7.79167 9 8 9C8.1875 9 8.375 8.97396 8.5625 8.92188C8.75 8.86979 8.92708 8.80729 9.09375 8.73438C9.26042 8.66146 9.4375 8.5625 9.625 8.4375C9.8125 8.3125 9.96875 8.20312 10.0938 8.10938C10.2188 8.01562 10.3646 7.90625 10.5312 7.78125C10.6979 7.65625 10.8125 7.5625 10.875 7.5C13.3333 5.72917 14.9375 4.55208 15.6875 3.96875ZM8 8C7.83333 8 7.63021 7.94271 7.39062 7.82812C7.15104 7.71354 6.95833 7.60938 6.8125 7.51562C6.66667 7.42188 6.45312 7.26562 6.17188 7.04688C5.89062 6.82812 5.73958 6.71875 5.71875 6.71875C3.17708 4.86458 1.36458 3.52083 0.28125 2.6875C0.09375 2.54167 0 2.34375 0 2.09375V1.5C0 1.08333 0.145833 0.729167 0.4375 0.4375C0.729167 0.145833 1.08333 0 1.5 0H14.5C14.9167 0 15.2708 0.145833 15.5625 0.4375C15.8542 0.729167 16 1.08333 16 1.5V2.09375C16 2.34375 15.9062 2.54167 15.7188 2.6875C14.6979 3.47917 12.8854 4.82292 10.2812 6.71875C10.2604 6.71875 10.1094 6.82812 9.82812 7.04688C9.54688 7.26562 9.33333 7.42188 9.1875 7.51562C9.04167 7.60938 8.84896 7.71354 8.60938 7.82812C8.36979 7.94271 8.16667 8 8 8Z" fill="#2D2D2D"/>
    </symbol>

    <symbol id="gps__black" width="12" height="16" viewBox="0 0 12 16" fill="none">
        <path d="M5.375 15.6875C4.875 14.9583 4.30729 14.1354 3.67188 13.2188C3.03646 12.3021 2.58333 11.6562 2.3125 11.2812C2.04167 10.9062 1.72917 10.4427 1.375 9.89062C1.02083 9.33854 0.786458 8.94792 0.671875 8.71875C0.557292 8.48958 0.432292 8.19792 0.296875 7.84375C0.161458 7.48958 0.078125 7.18229 0.046875 6.92188C0.015625 6.66146 0 6.35417 0 6C0 4.33333 0.583333 2.91667 1.75 1.75C2.91667 0.583333 4.33333 0 6 0C7.66667 0 9.08333 0.583333 10.25 1.75C11.4167 2.91667 12 4.33333 12 6C12 6.35417 11.9844 6.66146 11.9531 6.92188C11.9219 7.18229 11.8385 7.48958 11.7031 7.84375C11.5677 8.19792 11.4427 8.48958 11.3281 8.71875C11.2135 8.94792 10.9792 9.33854 10.625 9.89062C10.2708 10.4427 9.95833 10.9062 9.6875 11.2812C9.41667 11.6562 8.96354 12.3021 8.32812 13.2188C7.69271 14.1354 7.125 14.9583 6.625 15.6875C6.47917 15.8958 6.27083 16 6 16C5.72917 16 5.52083 15.8958 5.375 15.6875ZM4.23438 7.76562C4.23438 7.76562 4.35677 7.88802 4.60156 8.13281C4.84635 8.3776 5.3125 8.5 6 8.5C6.6875 8.5 7.27604 8.25521 7.76562 7.76562C8.25521 7.27604 8.5 6.6875 8.5 6C8.5 5.3125 8.25521 4.72396 7.76562 4.23438C7.27604 3.74479 6.6875 3.5 6 3.5C5.3125 3.5 4.72396 3.74479 4.23438 4.23438C3.74479 4.72396 3.5 5.3125 3.5 6C3.5 6.6875 3.74479 7.27604 4.23438 7.76562Z" fill="#2D2D2D"/>
    </symbol>

    <symbol id="arrow__prev" width="4" height="6" viewBox="0 0 4 6" fill="none">
        <path d="M3.29492 0.314453L0.628255 2.98112L3.29492 5.64779" stroke="currentColor" stroke-width="0.888889"/>
    </symbol>

    <symbol id="arrow__next" width="4" height="6" viewBox="0 0 4 6" fill="none">
        <path d="M0.314453 0.314453L2.98112 2.98112L0.314453 5.64779" stroke="currentColor" stroke-width="0.888889"/>
    </symbol>

    <symbol id="play__in-cube" width="20" height="20" viewBox="0 0 20 20" fill="none">
        <path d="M7.5 6.96536C7.5 6.48808 7.5 6.24944 7.59974 6.11621C7.68666 6.0001 7.81971 5.92747 7.96438 5.91713C8.13038 5.90528 8.33112 6.03432 8.73261 6.29242L13.4532 9.32709C13.8016 9.55105 13.9758 9.66303 14.0359 9.80542C14.0885 9.92983 14.0885 10.0702 14.0359 10.1946C13.9758 10.337 13.8016 10.449 13.4532 10.6729L8.73261 13.7076C8.33112 13.9657 8.13038 14.0948 7.96438 14.0829C7.81971 14.0726 7.68666 13.9999 7.59974 13.8838C7.5 13.7506 7.5 13.512 7.5 13.0347V6.96536Z" stroke="#D90031" stroke-width="2" stroke-linecap="round" stroke-linejoin="round"/>
        <path d="M1 5.8C1 4.11984 1 3.27976 1.32698 2.63803C1.6146 2.07354 2.07354 1.6146 2.63803 1.32698C3.27976 1 4.11984 1 5.8 1H14.2C15.8802 1 16.7202 1 17.362 1.32698C17.9265 1.6146 18.3854 2.07354 18.673 2.63803C19 3.27976 19 4.11984 19 5.8V14.2C19 15.8802 19 16.7202 18.673 17.362C18.3854 17.9265 17.9265 18.3854 17.362 18.673C16.7202 19 15.8802 19 14.2 19H5.8C4.11984 19 3.27976 19 2.63803 18.673C2.07354 18.3854 1.6146 17.9265 1.32698 17.362C1 16.7202 1 15.8802 1 14.2V5.8Z" stroke="#D90031" stroke-width="2" stroke-linecap="round" stroke-linejoin="round"/>
    </symbol>

    <symbol id="enter" width="24" height="24" viewBox="0 0 24 24" fill="none">
        <path d="M16 7L21 12L16 17M21 12H9M9 3H7.8C6.11984 3 5.27976 3 4.63803 3.32698C4.07354 3.6146 3.6146 4.07354 3.32698 4.63803C3 5.27976 3 6.11984 3 7.8V16.2C3 17.8802 3 18.7202 3.32698 19.362C3.6146 19.9265 4.07354 20.3854 4.63803 20.673C5.27976 21 6.11984 21 7.8 21H9" stroke="#D90031" stroke-width="2" stroke-linecap="round" stroke-linejoin="round"/>
    </symbol>

    <symbol id="graph" width="18" height="22" viewBox="0 0 18 22" fill="none">
        <path d="M11 1.26959V5.40014C11 5.96019 11 6.24021 11.109 6.45412C11.2049 6.64229 11.3578 6.79527 11.546 6.89114C11.7599 7.00013 12.0399 7.00013 12.6 7.00013H16.7305M5 14.0001V17.0001M13 12.0001V17.0001M9 9.50006V17.0001M17 8.98829V16.2001C17 17.8802 17 18.7203 16.673 19.362C16.3854 19.9265 15.9265 20.3855 15.362 20.6731C14.7202 21.0001 13.8802 21.0001 12.2 21.0001H5.8C4.11984 21.0001 3.27976 21.0001 2.63803 20.6731C2.07354 20.3855 1.6146 19.9265 1.32698 19.362C1 18.7203 1 17.8802 1 16.2001V5.80006C1 4.11991 1 3.27983 1.32698 2.63809C1.6146 2.07361 2.07354 1.61466 2.63803 1.32704C3.27976 1.00006 4.11984 1.00006 5.8 1.00006H9.01178C9.74555 1.00006 10.1124 1.00006 10.4577 1.08295C10.7638 1.15644 11.0564 1.27766 11.3249 1.44214C11.6276 1.62767 11.887 1.8871 12.4059 2.40595L15.5941 5.59417C16.113 6.11303 16.3724 6.37246 16.5579 6.67521C16.7224 6.94363 16.8436 7.23626 16.9171 7.54237C17 7.88763 17 8.25452 17 8.98829Z" stroke="#D90031" stroke-width="2" stroke-linecap="round" stroke-linejoin="round"/>
    </symbol>

    <symbol id="cart" width="22" height="21" viewBox="0 0 22 21" fill="none">
        <path d="M5.50014 16H16.3294C17.2793 16 17.7543 16 18.1414 15.8284C18.4827 15.6771 18.7748 15.4333 18.9847 15.1246C19.2228 14.7744 19.3078 14.3071 19.4777 13.3724L20.8285 5.94311C20.8874 5.61918 20.9169 5.45721 20.8714 5.33074C20.8315 5.21979 20.7536 5.12651 20.6516 5.06739C20.5353 5 20.3707 5 20.0414 5H4.00014M1 1H2.3164C2.55909 1 2.68044 1 2.77858 1.04433C2.86507 1.0834 2.93867 1.14628 2.99075 1.22563C3.04984 1.31565 3.06876 1.43551 3.10662 1.67523L5.89338 19.3248C5.93124 19.5645 5.95016 19.6844 6.00925 19.7744C6.06133 19.8537 6.13493 19.9166 6.22142 19.9557C6.31956 20 6.44091 20 6.6836 20H18" stroke="#D90031" stroke-width="2" stroke-linecap="round" stroke-linejoin="round"/>
    </symbol>

    <symbol id="filter__arrow" width="11" height="6" viewBox="0 0 11 6" fill="none">
        <path d="M0.75 0.75L5.25 5.25L9.75 0.75" stroke="#2D2D2D" stroke-width="1.5" stroke-linecap="round" stroke-linejoin="round"/>
    </symbol>

    <symbol id="play" width="20" height="20" viewBox="0 0 20 20" fill="none">
        <path d="M4.51172 3.88916V15.4687L13.6099 9.67892L4.51172 3.88916Z" fill="white"/>
    </symbol>
    
    <symbol id="arrow__slider-prev" width="6" height="9" viewBox="0 0 6 9" fill="none">
        <path d="M4.94336 0.471436L0.943359 4.47144L4.94336 8.47144" stroke="#343434" stroke-width="1.33333"/>
    </symbol>
    
    <symbol id="arrow__slider-next" width="6" height="9" viewBox="0 0 6 9" fill="none">
        <path d="M0.470703 0.471436L4.4707 4.47144L0.470703 8.47144" stroke="#F5F5F5" stroke-width="1.33333"/>
    </symbol>
</svg>